# xmcd CD database file
#
# Track frame offsets:
#	150
#	13195
#	27439
#	43140
#	57126
#	73006
#	87875
#	105809
#	119681
#	134080
#	152022
#	167329
#
# Disc length: 2446 seconds
#
# Revision: 0
# Processed by: cddbd v1.5.2PL0 Copyright (c) Steve Scherf et al.
# Submitted via: CDex 1.51
#
DISCID=9c098c0c
DTITLE=Gal Holiday  - Last To Leave
DYEAR=2014
DGENRE=Country
TTITLE0=The Long Black Ribbon 
TTITLE1=She's A Killer 
TTITLE2=Last To Leave 
TTITLE3=Broke Down And Broke 
TTITLE4=Broken Rings 
TTITLE5=Love Is A Battlefield 
TTITLE6=Rainy Nights, Sunny Days 
TTITLE7=Teach Me How To Two Step 
TTITLE8=South of I-12 
TTITLE9=The Ballad Of Addie and Zack 
TTITLE10=To Make Amends 
TTITLE11=You Mean The World To Me 
EXTD=YEAR: 2014
EXTT0=
EXTT1=
EXTT2=
EXTT3=
EXTT4=
EXTT5=
EXTT6=
EXTT7=
EXTT8=
EXTT9=
EXTT10=
EXTT11=
PLAYORDER=
